<?xml version="1.0" encoding="UTF-8"?><svg id="Layer_1" xmlns="http://www.w3.org/2000/svg" viewBox="0 0 512 512"><defs><style>.cls-1{fill:#f25050;}</style></defs><path class="cls-1" d="M207,512h-20c-14.3-3.2-25.4-11.5-35.6-21.8-43-43.4-86.2-86.6-129.6-129.6-10.3-10.2-18.6-21.2-21.8-35.6v-20c3-14.2,11.1-25.2,21.3-35.3C99.7,191.6,177.9,113.3,256,35c7.8-7.9,16.6-14.4,26.3-19.7,14-7.7,29-12.5,44.7-15.3h140c24.3,6.3,39.6,21.3,45,46V185c-.2,1.1-.5,2.3-.7,3.4-5.4,27.3-17.4,50.9-37.4,70.8-77.4,76.9-154.5,154.2-231.5,231.5-10.1,10.2-21.1,18.2-35.3,21.3Zm-6-278.8c-9.7,.1-18.2,11.9-14.1,19.6,15.9,30.4,32.1,60.7,48.2,90.9,2.4,4.6,6.9,5.2,12.5,2,5.5-3.1,7.1-6.7,4.7-11.3-2.6-5-5.4-10-8.2-14.9-1.4-2.4-1.3-4.2,.8-6.2,7.1-7,14.2-14.1,21.2-21.2,2-2,3.8-2.2,6.2-.8,4.3,2.5,8.7,4.9,13.1,7.3,6.2,3.4,9.7,2.4,13.1-3.8,3.6-6.6,2.7-10-3.7-13.4-29.1-15.5-58.3-30.9-87.4-46.4-2.1-1.1-4.2-2.1-6.3-2Zm167.3-10.4c2.2,0,4.1-.9,5.7-2.5,13.5-13.4,26.9-26.8,40.3-40.2,2.5-2.5,2.4-5.3,.7-8.2-3.6-6.3-9.4-7.2-14.7-1.9-8.9,8.8-17.8,17.6-26.5,26.5-2.8,2.9-4.7,2.7-7.3,0-5.4-5.7-10.9-11.2-16.6-16.6-2.8-2.6-2.5-4.5,.1-6.9,4-3.7,7.8-7.7,11.7-11.6,4.6-4.7,5-8.3,1.4-12-3.8-3.9-7.2-3.6-11.9,1.1-3.9,3.9-7.9,7.7-11.6,11.7-2.6,2.8-4.6,3-7.3,.1-4.8-5.1-9.9-9.9-14.8-14.9q-5.2-5.2,0-10.4c8.7-8.7,17.5-17.4,26.1-26.2,3.4-3.5,2.9-7.8-.8-11.5-3.6-3.5-7.8-4-11.1-.7-13.3,13.1-26.5,26.3-39.5,39.6-4.1,4.2-4,7.7,0,11.7,23.4,23.5,46.9,46.9,70.3,70.3,1.6,1.6,3.2,2.9,5.8,2.7Zm-251,103.2c0,14,11.2,27.3,24.6,29.8,9.3,1.7,17.8-1.2,26.2-4.2,6.3-2.2,12.4-5,19-6.1,6.7-1.1,12.3,.7,16.1,6.4,3.8,5.7,2.4,11.5-1.1,16.8-5.7,8.6-14.2,12.1-24.2,12.7-6.2,.4-8.4,2.2-8.7,6.8-.3,5.9,2.9,10.5,8.2,11.3,3.5,.5,7,.5,10.4-.5,15-4.4,26.2-13.6,33.3-27.5,5.9-11.6,4.5-23-3.6-33.2-8.5-10.8-19.2-16.7-33.5-14.4-6.8,1.1-13.1,3.6-19.5,6.1-4.9,2-9.9,4.1-15.2,4.9-9.5,1.5-16.1-6.6-13-15.7,.9-2.6,2.3-4.8,4-6.9,4.7-5.9,10.8-9.6,18-12,6.4-2.1,7.8-6.7,4.3-12.5-2.8-4.7-7.2-6-13.5-3-13.1,6.4-23.4,15.9-29.4,29.4-1.7,3.8-2.8,7.9-2.6,11.8Zm239.2-92c-.7-3-3.2-5.9-7-7.7-3.4-1.6-5.7,.3-7.9,2.5-7.2,7.2-14.4,14.4-21.6,21.5-4.7,4.7-4.7,4.7-9.4,.1-19.6-19.5-39.1-39.1-58.6-58.6-4.8-4.8-8.9-4.7-13.7,.2-5.1,5.1-5.2,8.7-.3,13.6,22.8,22.9,45.7,45.7,68.5,68.5,5.1,5.1,8.5,5.3,13.6,.3,11.4-11.2,22.6-22.6,33.9-33.9,1.4-1.4,2.7-3,2.4-6.4Zm46.8-138.6c0,8,6.1,14.3,14.1,14.3,8,0,14.2-6.2,14.3-14.1,0-8-6.1-14.2-14.1-14.2-8.1,0-14.3,6.1-14.3,14.1Z"/><path class="cls-1" d="M210.1,257.2c4,1,6.8,3.1,9.8,4.8,10.3,5.7,20.6,11.5,31,17.2,2.7,1.5,3.8,3,1.1,5.6-5,4.9-9.9,9.8-14.8,14.8-1.8,1.8-3.3,2.2-4.7-.4-7.4-13.4-14.9-26.7-22.3-40.1-.2-.4,0-.9-.1-1.9Z"/></svg>